<?xml version="1.0" encoding="UTF-8" standalone="no"?>
<!-- Created with Inkscape (http://www.inkscape.org/) -->

<svg
   width="69.053352mm"
   height="72.124504mm"
   viewBox="0 0 69.053352 72.124503"
   version="1.1"
   id="svg1"
   xml:space="preserve"
   inkscape:version="1.3 (0e150ed6c4, 2023-07-21)"
   sodipodi:docname="VidEffBackgrStar.svg"
   xmlns:inkscape="http://www.inkscape.org/namespaces/inkscape"
   xmlns:sodipodi="http://sodipodi.sourceforge.net/DTD/sodipodi-0.dtd"
   xmlns:xlink="http://www.w3.org/1999/xlink"
   xmlns="http://www.w3.org/2000/svg"
   xmlns:svg="http://www.w3.org/2000/svg"><sodipodi:namedview
     id="namedview1"
     pagecolor="#ffffff"
     bordercolor="#000000"
     borderopacity="0.25"
     inkscape:showpageshadow="2"
     inkscape:pageopacity="0.0"
     inkscape:pagecheckerboard="0"
     inkscape:deskcolor="#d1d1d1"
     inkscape:document-units="mm"
     inkscape:zoom="1.8137767"
     inkscape:cx="167.60608"
     inkscape:cy="149.13633"
     inkscape:window-width="1366"
     inkscape:window-height="705"
     inkscape:window-x="-8"
     inkscape:window-y="-8"
     inkscape:window-maximized="1"
     inkscape:current-layer="layer1" /><defs
     id="defs1"><linearGradient
       id="linearGradient13"
       inkscape:collect="always"><stop
         style="stop-color:#283ff9;stop-opacity:1;"
         offset="0"
         id="stop13" /><stop
         style="stop-color:#5200f3;stop-opacity:1;"
         offset="1"
         id="stop14" /></linearGradient><linearGradient
       inkscape:collect="always"
       xlink:href="#linearGradient13"
       id="linearGradient14"
       x1="63.010117"
       y1="212.07259"
       x2="132.06348"
       y2="212.07259"
       gradientUnits="userSpaceOnUse"
       gradientTransform="translate(48.892475,-10.314868)" /></defs><g
     inkscape:label="Слой 1"
     inkscape:groupmode="layer"
     id="layer1"
     transform="translate(-111.90259,-165.69546)"><path
       style="fill:url(#linearGradient14);stroke:none;stroke-width:1.23778;stroke-opacity:1;paint-order:stroke fill markers"
       d="m 144.37712,237.6275 c -1.58941,-0.52338 -2.23675,-1.00078 -4.96249,-3.65972 l -2.73087,-2.66396 -0.99266,0.11362 c -1.92826,0.22069 -6.56077,0.52286 -8.01601,0.52286 -1.36164,0 -1.56838,-0.061 -2.71182,-0.80003 -2.07371,-1.3403 -2.51122,-2.27038 -3.57459,-7.59902 -0.35745,-1.79121 -0.77289,-3.44942 -0.92321,-3.6849 -0.15032,-0.23549 -1.69668,-1.16383 -3.43636,-2.06297 -2.21108,-1.14279 -3.45853,-1.92679 -4.14479,-2.60491 -0.53995,-0.53355 -0.98173,-1.06734 -0.98173,-1.18621 0,-0.14176 1.15338,-0.21612 3.35233,-0.21611 l 3.35233,1e-5 1.7363,0.9799 c 2.30287,1.29966 3.55985,2.45467 4.14062,3.8047 0.25634,0.59587 0.72307,2.53544 1.03718,4.31016 0.59114,3.33993 0.72985,3.77981 1.37026,4.34547 0.64875,0.57301 1.57182,0.62396 4.84726,0.26754 3.85267,-0.41923 5.81555,-0.3345 6.8863,0.29726 0.42319,0.24969 1.96809,1.54068 3.4331,2.86887 1.46502,1.32818 2.97379,2.59695 3.35284,2.81948 l 0.68917,0.40459 1.04073,-0.81719 c 0.5724,-0.44945 2.03319,-1.72611 3.24619,-2.83702 1.21301,-1.11091 2.58887,-2.21774 3.05748,-2.45962 1.19098,-0.61474 3.5198,-0.70146 7.19572,-0.26797 4.66402,0.55002 4.79633,0.44883 5.62738,-4.30365 1.04889,-5.99828 1.37588,-6.42401 7.37593,-9.60342 1.38263,-0.73265 2.57726,-1.51177 2.7707,-1.807 0.47196,-0.72029 0.1895,-1.67589 -1.62599,-5.50095 -0.7997,-1.6849 -1.5025,-3.42509 -1.56179,-3.86711 -0.18852,-1.40548 0.34146,-3.2717 1.8274,-6.43494 1.93073,-4.1101 1.9248,-4.06317 0.666,-5.26381 -0.60777,-0.57968 -2.03295,-1.50596 -3.54752,-2.30563 -1.39239,-0.73518 -2.92382,-1.71248 -3.40318,-2.17178 -1.44039,-1.38014 -1.7329,-2.22878 -2.7371,-7.94105 -0.30838,-1.75418 -0.41876,-2.03017 -1.05201,-2.63029 -0.60359,-0.57201 -0.85839,-0.67047 -1.73513,-0.67047 -0.56521,0 -1.69581,0.16004 -2.51245,0.35564 -0.96821,0.2319 -2.34612,0.35751 -3.96038,0.36102 -2.35529,0.005 -2.52419,-0.0232 -3.47649,-0.58294 -0.5505,-0.32358 -1.73414,-1.32154 -2.63029,-2.2177 l -1.62937,-1.62937 v -2.79671 -2.79671 l 0.46247,0.32392 c 0.25436,0.17816 1.74701,1.54335 3.31701,3.03376 l 2.85454,2.70982 2.51089,-0.36021 c 1.38099,-0.19812 3.43923,-0.40754 4.57387,-0.46538 2.58007,-0.13152 3.94257,0.30386 5.34744,1.70873 1.19654,1.19654 1.66791,2.4811 2.41648,6.58523 0.72141,3.95525 0.56255,3.75476 4.82209,6.08577 3.126,1.71068 4.31586,2.70464 5.01126,4.1862 1.03965,2.21499 0.82679,3.48053 -1.35963,8.08345 -1.80706,3.80429 -1.81008,4.05427 -0.09,7.46032 2.28605,4.5268 2.52912,5.99781 1.38923,8.40735 -0.72465,1.53177 -1.36889,2.05632 -5.22149,4.25137 -2.39676,1.36557 -3.51734,2.12192 -3.69562,2.49441 -0.14073,0.29403 -0.53931,1.96503 -0.88576,3.71335 -0.72701,3.66891 -1.36716,5.22318 -2.72575,6.61809 -1.47135,1.51068 -2.3314,1.61863 -9.06377,1.13763 l -3.43662,-0.24553 -2.84806,2.66235 c -1.85035,1.72968 -3.21264,2.82925 -3.88877,3.13879 -1.31285,0.60105 -3.03786,0.76845 -4.1488,0.40262 z"
       id="path12" /></g></svg>
